<mxfile agent="5.0 (Windows NT 6.2; Win64; x64) AppleWebKit/537.36 (KHTML, like Gecko) Chrome/87.0.4280.141 Safari/537.36" etag="4pDwNeejkeJpSSi63iod" host="drawio-plugin" modified="2021-08-19T21:04:40.342Z" version="14.7.4" type="embed"><diagram id="IMKdLe033Ss-uBbvRSFo" name="Page-1"><mxGraphModel dx="-3542" dy="66" grid="1" gridSize="10" guides="1" tooltips="1" connect="1" arrows="1" fold="1" page="1" pageScale="1" pageWidth="850" pageHeight="1100" math="0" shadow="0"><root><mxCell id="0"/><mxCell id="1" parent="0"/><mxCell id="OpdNplUtQxuJoesoAGpr-186" value="" style="edgeStyle=none;rounded=0;jumpStyle=none;orthogonalLoop=1;jettySize=auto;html=1;startArrow=none;startFill=0;endArrow=none;endFill=0;strokeColor=#000000;strokeWidth=3;fontSize=55;fontStyle=1;fontFamily=Palatino;" parent="1" source="OpdNplUtQxuJoesoAGpr-189" target="OpdNplUtQxuJoesoAGpr-200" edge="1"><mxGeometry relative="1" as="geometry"/></mxCell><mxCell id="OpdNplUtQxuJoesoAGpr-187" value="" style="edgeStyle=none;rounded=0;jumpStyle=none;orthogonalLoop=1;jettySize=auto;html=1;startArrow=none;startFill=0;endArrow=none;endFill=0;strokeColor=#000000;strokeWidth=3;fontSize=55;fontStyle=1;fontFamily=Palatino;" parent="1" source="OpdNplUtQxuJoesoAGpr-189" target="OpdNplUtQxuJoesoAGpr-198" edge="1"><mxGeometry relative="1" as="geometry"/></mxCell><mxCell id="OpdNplUtQxuJoesoAGpr-189" value="3" style="ellipse;whiteSpace=wrap;html=1;aspect=fixed;rounded=1;shadow=0;glass=0;comic=0;strokeColor=#000000;fillColor=#000000;align=right;fontSize=55;labelPosition=left;verticalLabelPosition=bottom;verticalAlign=top;fontStyle=1;fontFamily=Palatino;" parent="1" vertex="1"><mxGeometry x="5440.501428571429" y="1757.5" width="31" height="31" as="geometry"/></mxCell><mxCell id="OpdNplUtQxuJoesoAGpr-197" value="" style="edgeStyle=none;rounded=0;jumpStyle=none;orthogonalLoop=1;jettySize=auto;html=1;startArrow=none;startFill=0;endArrow=none;endFill=0;strokeColor=#000000;strokeWidth=3;fontSize=55;fontStyle=1;fontFamily=Palatino;" parent="1" source="OpdNplUtQxuJoesoAGpr-198" target="2" edge="1"><mxGeometry relative="1" as="geometry"/></mxCell><mxCell id="OpdNplUtQxuJoesoAGpr-198" value="2" style="ellipse;whiteSpace=wrap;html=1;aspect=fixed;rounded=1;shadow=0;glass=0;comic=0;strokeColor=#000000;fillColor=#000000;align=center;fontSize=55;labelPosition=center;verticalLabelPosition=top;verticalAlign=bottom;fontStyle=1;fontFamily=Palatino;" parent="1" vertex="1"><mxGeometry x="5320.501428571429" y="1757.5" width="31" height="31" as="geometry"/></mxCell><mxCell id="OpdNplUtQxuJoesoAGpr-200" value="4" style="ellipse;whiteSpace=wrap;html=1;aspect=fixed;rounded=1;shadow=0;glass=0;comic=0;strokeColor=#000000;fillColor=#000000;align=right;fontSize=55;labelPosition=left;verticalLabelPosition=middle;verticalAlign=middle;fontStyle=1;fontFamily=Palatino;" parent="1" vertex="1"><mxGeometry x="5440.501428571429" y="1679" width="31" height="31" as="geometry"/></mxCell><mxCell id="2" value="1" style="ellipse;whiteSpace=wrap;html=1;aspect=fixed;rounded=1;shadow=0;glass=0;comic=0;strokeColor=#000000;fillColor=#000000;align=center;fontSize=55;labelPosition=center;verticalLabelPosition=top;verticalAlign=bottom;fontStyle=1;fontFamily=Palatino;" parent="1" vertex="1"><mxGeometry x="5200.001428571429" y="1757.5" width="31" height="31" as="geometry"/></mxCell></root></mxGraphModel></diagram></mxfile>